<?xml version="1.0" encoding="utf-8" standalone="no"?>
<!DOCTYPE svg PUBLIC "-//W3C//DTD SVG 1.1//EN"
  "http://www.w3.org/Graphics/SVG/1.1/DTD/svg11.dtd">
<svg xmlns:xlink="http://www.w3.org/1999/xlink" width="1440pt" height="360pt" viewBox="0 0 1440 360" xmlns="http://www.w3.org/2000/svg" version="1.1">
 <metadata>
  <rdf:RDF xmlns:dc="http://purl.org/dc/elements/1.1/" xmlns:cc="http://creativecommons.org/ns#" xmlns:rdf="http://www.w3.org/1999/02/22-rdf-syntax-ns#">
   <cc:Work>
    <dc:type rdf:resource="http://purl.org/dc/dcmitype/StillImage"/>
    <dc:date>2023-07-22T17:28:17.991537</dc:date>
    <dc:format>image/svg+xml</dc:format>
    <dc:creator>
     <cc:Agent>
      <dc:title>Matplotlib v3.5.1, https://matplotlib.org/</dc:title>
     </cc:Agent>
    </dc:creator>
   </cc:Work>
  </rdf:RDF>
 </metadata>
 <defs>
  <style type="text/css">*{stroke-linejoin: round; stroke-linecap: butt}</style>
 </defs>
 <g id="figure_1">
  <g id="patch_1">
   <path d="M 0 360 
L 1440 360 
L 1440 0 
L 0 0 
z
" style="fill: #ffffff"/>
  </g>
  <g id="axes_1">
   <g id="patch_2">
    <path d="M 270.500265 218.245878 
C 277.396871 225.171492 286.00274 230.153124 295.443079 232.684386 
C 304.883419 235.215649 314.827138 235.207766 324.263453 232.66154 
C 314.137032 227.846769 305.58068 220.257522 299.591546 210.778245 
C 293.602413 201.298968 290.422557 190.312779 290.422557 179.1 
C 290.422557 167.887221 293.602413 156.901032 299.591546 147.421755 
C 305.58068 137.942478 314.137032 130.353231 324.263453 125.53846 
C 314.827138 122.992234 304.883419 122.984351 295.443079 125.515614 
C 286.00274 128.046876 277.396871 133.028508 270.500265 139.954122 
C 276.670549 144.447141 281.691994 150.336014 285.153591 157.138731 
C 288.615188 163.941448 290.419843 171.467201 290.419843 179.1 
C 290.419843 186.732799 288.615188 194.258552 285.153591 201.061269 
C 281.691994 207.863986 276.670549 213.752859 270.500265 218.245878 
" clip-path="url(#p2f195c9e54)" style="fill: #c44e52; opacity: 0.4"/>
   </g>
   <g id="patch_3">
    <path d="M 270.500265 218.245878 
C 260.150526 207.852606 254.333616 193.767556 254.333616 179.1 
C 254.333616 164.432444 260.150526 150.347394 270.500265 139.954122 
C 263.278007 134.695085 254.739292 131.535946 245.833277 130.827871 
C 236.927261 130.119795 227.996635 131.89003 220.034118 135.941797 
C 212.071602 139.993563 205.383581 146.170956 200.713489 153.787302 
C 196.043397 161.403648 193.570932 170.165881 193.570932 179.1 
C 193.570932 188.034119 196.043397 196.796352 200.713489 204.412698 
C 205.383581 212.029044 212.071602 218.206437 220.034118 222.258203 
C 227.996635 226.30997 236.927261 228.080205 245.833277 227.372129 
C 254.739292 226.664054 263.278007 223.504915 270.500265 218.245878 
" clip-path="url(#p2f195c9e54)" style="fill: #55a868; opacity: 0.4"/>
   </g>
   <g id="patch_4">
    <path d="M 270.500265 139.954122 
C 260.150526 150.347394 254.333616 164.432444 254.333616 179.1 
C 254.333616 193.767556 260.150526 207.852606 270.500265 218.245878 
C 276.670549 213.752859 281.691994 207.863986 285.153591 201.061269 
C 288.615188 194.258552 290.419843 186.732799 290.419843 179.1 
C 290.419843 171.467201 288.615188 163.941448 285.153591 157.138731 
C 281.691994 150.336014 276.670549 144.447141 270.500265 139.954122 
" clip-path="url(#p2f195c9e54)" style="fill: #c5ac82; opacity: 0.4"/>
   </g>
   <g id="patch_5">
    <path d="M 324.263453 125.53846 
C 336.035929 128.715058 346.439004 135.686012 353.85345 145.366298 
C 361.267897 155.046585 365.287982 166.906478 365.287982 179.1 
C 365.287982 191.293522 361.267897 203.153415 353.85345 212.833702 
C 346.439004 222.513988 336.035929 229.484942 324.263453 232.66154 
C 333.302904 236.959495 343.284979 238.899963 353.276272 238.301494 
C 363.267564 237.703025 372.946633 234.584874 381.408405 229.238614 
C 389.870178 223.892353 396.84242 216.489984 401.67317 207.723688 
C 406.503921 198.957392 409.037763 189.1092 409.037763 179.1 
C 409.037763 169.0908 406.503921 159.242608 401.67317 150.476312 
C 396.84242 141.710016 389.870178 134.307647 381.408405 128.961386 
C 372.946633 123.615126 363.267564 120.496975 353.276272 119.898506 
C 343.284979 119.300037 333.302904 121.240505 324.263453 125.53846 
" clip-path="url(#p2f195c9e54)" style="fill: #4c72b0; opacity: 0.4"/>
   </g>
   <g id="patch_6">
    <path d="M 324.263453 232.66154 
C 336.035929 229.484942 346.439004 222.513988 353.85345 212.833702 
C 361.267897 203.153415 365.287982 191.293522 365.287982 179.1 
C 365.287982 166.906478 361.267897 155.046585 353.85345 145.366298 
C 346.439004 135.686012 336.035929 128.715058 324.263453 125.53846 
C 314.137032 130.353231 305.58068 137.942478 299.591546 147.421755 
C 293.602413 156.901032 290.422557 167.887221 290.422557 179.1 
C 290.422557 190.312779 293.602413 201.298968 299.591546 210.778245 
C 305.58068 220.257522 314.137032 227.846769 324.263453 232.66154 
" clip-path="url(#p2f195c9e54)" style="fill: #be86b5; opacity: 0.4"/>
   </g>
   <g id="text_1">
    <!-- 0 -->
    <g style="fill: #262626" transform="translate(288.295838 182.41125)scale(0.12 -0.12)">
     <defs>
      <path id="DejaVuSans-30" d="M 2034 4250 
Q 1547 4250 1301 3770 
Q 1056 3291 1056 2328 
Q 1056 1369 1301 889 
Q 1547 409 2034 409 
Q 2525 409 2770 889 
Q 3016 1369 3016 2328 
Q 3016 3291 2770 3770 
Q 2525 4250 2034 4250 
z
M 2034 4750 
Q 2819 4750 3233 4129 
Q 3647 3509 3647 2328 
Q 3647 1150 3233 529 
Q 2819 -91 2034 -91 
Q 1250 -91 836 529 
Q 422 1150 422 2328 
Q 422 3509 836 4129 
Q 1250 4750 2034 4750 
z
" transform="scale(0.015625)"/>
     </defs>
     <use xlink:href="#DejaVuSans-30"/>
    </g>
   </g>
   <g id="text_2">
    <!-- 10 -->
    <g style="fill: #262626" transform="translate(216.317274 182.41125)scale(0.12 -0.12)">
     <defs>
      <path id="DejaVuSans-31" d="M 794 531 
L 1825 531 
L 1825 4091 
L 703 3866 
L 703 4441 
L 1819 4666 
L 2450 4666 
L 2450 531 
L 3481 531 
L 3481 0 
L 794 0 
L 794 531 
z
" transform="scale(0.015625)"/>
     </defs>
     <use xlink:href="#DejaVuSans-31"/>
     <use xlink:href="#DejaVuSans-30" x="63.623047"/>
    </g>
   </g>
   <g id="text_3">
    <!-- 6 -->
    <g style="fill: #262626" transform="translate(268.559229 182.41125)scale(0.12 -0.12)">
     <defs>
      <path id="DejaVuSans-36" d="M 2113 2584 
Q 1688 2584 1439 2293 
Q 1191 2003 1191 1497 
Q 1191 994 1439 701 
Q 1688 409 2113 409 
Q 2538 409 2786 701 
Q 3034 994 3034 1497 
Q 3034 2003 2786 2293 
Q 2538 2584 2113 2584 
z
M 3366 4563 
L 3366 3988 
Q 3128 4100 2886 4159 
Q 2644 4219 2406 4219 
Q 1781 4219 1451 3797 
Q 1122 3375 1075 2522 
Q 1259 2794 1537 2939 
Q 1816 3084 2150 3084 
Q 2853 3084 3261 2657 
Q 3669 2231 3669 1497 
Q 3669 778 3244 343 
Q 2819 -91 2113 -91 
Q 1303 -91 875 529 
Q 447 1150 447 2328 
Q 447 3434 972 4092 
Q 1497 4750 2381 4750 
Q 2619 4750 2861 4703 
Q 3103 4656 3366 4563 
z
" transform="scale(0.015625)"/>
     </defs>
     <use xlink:href="#DejaVuSans-36"/>
    </g>
   </g>
   <g id="text_4">
    <!-- 9 -->
    <g style="fill: #262626" transform="translate(383.345372 182.41125)scale(0.12 -0.12)">
     <defs>
      <path id="DejaVuSans-39" d="M 703 97 
L 703 672 
Q 941 559 1184 500 
Q 1428 441 1663 441 
Q 2288 441 2617 861 
Q 2947 1281 2994 2138 
Q 2813 1869 2534 1725 
Q 2256 1581 1919 1581 
Q 1219 1581 811 2004 
Q 403 2428 403 3163 
Q 403 3881 828 4315 
Q 1253 4750 1959 4750 
Q 2769 4750 3195 4129 
Q 3622 3509 3622 2328 
Q 3622 1225 3098 567 
Q 2575 -91 1691 -91 
Q 1453 -91 1209 -44 
Q 966 3 703 97 
z
M 1959 2075 
Q 2384 2075 2632 2365 
Q 2881 2656 2881 3163 
Q 2881 3666 2632 3958 
Q 2384 4250 1959 4250 
Q 1534 4250 1286 3958 
Q 1038 3666 1038 3163 
Q 1038 2656 1286 2365 
Q 1534 2075 1959 2075 
z
" transform="scale(0.015625)"/>
     </defs>
     <use xlink:href="#DejaVuSans-39"/>
    </g>
   </g>
   <g id="text_5">
    <!-- 15 -->
    <g style="fill: #262626" transform="translate(320.220269 182.41125)scale(0.12 -0.12)">
     <defs>
      <path id="DejaVuSans-35" d="M 691 4666 
L 3169 4666 
L 3169 4134 
L 1269 4134 
L 1269 2991 
Q 1406 3038 1543 3061 
Q 1681 3084 1819 3084 
Q 2600 3084 3056 2656 
Q 3513 2228 3513 1497 
Q 3513 744 3044 326 
Q 2575 -91 1722 -91 
Q 1428 -91 1123 -41 
Q 819 9 494 109 
L 494 744 
Q 775 591 1075 516 
Q 1375 441 1709 441 
Q 2250 441 2565 725 
Q 2881 1009 2881 1497 
Q 2881 1984 2565 2268 
Q 2250 2553 1709 2553 
Q 1456 2553 1204 2497 
Q 953 2441 691 2322 
L 691 4666 
z
" transform="scale(0.015625)"/>
     </defs>
     <use xlink:href="#DejaVuSans-31"/>
     <use xlink:href="#DejaVuSans-35" x="63.623047"/>
    </g>
   </g>
   <g id="text_6">
    <!-- Fermented -->
    <g style="fill: #262626" transform="translate(270.971299 250.959241)scale(0.144 -0.144)">
     <defs>
      <path id="DejaVuSans-46" d="M 628 4666 
L 3309 4666 
L 3309 4134 
L 1259 4134 
L 1259 2759 
L 3109 2759 
L 3109 2228 
L 1259 2228 
L 1259 0 
L 628 0 
L 628 4666 
z
" transform="scale(0.015625)"/>
      <path id="DejaVuSans-65" d="M 3597 1894 
L 3597 1613 
L 953 1613 
Q 991 1019 1311 708 
Q 1631 397 2203 397 
Q 2534 397 2845 478 
Q 3156 559 3463 722 
L 3463 178 
Q 3153 47 2828 -22 
Q 2503 -91 2169 -91 
Q 1331 -91 842 396 
Q 353 884 353 1716 
Q 353 2575 817 3079 
Q 1281 3584 2069 3584 
Q 2775 3584 3186 3129 
Q 3597 2675 3597 1894 
z
M 3022 2063 
Q 3016 2534 2758 2815 
Q 2500 3097 2075 3097 
Q 1594 3097 1305 2825 
Q 1016 2553 972 2059 
L 3022 2063 
z
" transform="scale(0.015625)"/>
      <path id="DejaVuSans-72" d="M 2631 2963 
Q 2534 3019 2420 3045 
Q 2306 3072 2169 3072 
Q 1681 3072 1420 2755 
Q 1159 2438 1159 1844 
L 1159 0 
L 581 0 
L 581 3500 
L 1159 3500 
L 1159 2956 
Q 1341 3275 1631 3429 
Q 1922 3584 2338 3584 
Q 2397 3584 2469 3576 
Q 2541 3569 2628 3553 
L 2631 2963 
z
" transform="scale(0.015625)"/>
      <path id="DejaVuSans-6d" d="M 3328 2828 
Q 3544 3216 3844 3400 
Q 4144 3584 4550 3584 
Q 5097 3584 5394 3201 
Q 5691 2819 5691 2113 
L 5691 0 
L 5113 0 
L 5113 2094 
Q 5113 2597 4934 2840 
Q 4756 3084 4391 3084 
Q 3944 3084 3684 2787 
Q 3425 2491 3425 1978 
L 3425 0 
L 2847 0 
L 2847 2094 
Q 2847 2600 2669 2842 
Q 2491 3084 2119 3084 
Q 1678 3084 1418 2786 
Q 1159 2488 1159 1978 
L 1159 0 
L 581 0 
L 581 3500 
L 1159 3500 
L 1159 2956 
Q 1356 3278 1631 3431 
Q 1906 3584 2284 3584 
Q 2666 3584 2933 3390 
Q 3200 3197 3328 2828 
z
" transform="scale(0.015625)"/>
      <path id="DejaVuSans-6e" d="M 3513 2113 
L 3513 0 
L 2938 0 
L 2938 2094 
Q 2938 2591 2744 2837 
Q 2550 3084 2163 3084 
Q 1697 3084 1428 2787 
Q 1159 2491 1159 1978 
L 1159 0 
L 581 0 
L 581 3500 
L 1159 3500 
L 1159 2956 
Q 1366 3272 1645 3428 
Q 1925 3584 2291 3584 
Q 2894 3584 3203 3211 
Q 3513 2838 3513 2113 
z
" transform="scale(0.015625)"/>
      <path id="DejaVuSans-74" d="M 1172 4494 
L 1172 3500 
L 2356 3500 
L 2356 3053 
L 1172 3053 
L 1172 1153 
Q 1172 725 1289 603 
Q 1406 481 1766 481 
L 2356 481 
L 2356 0 
L 1766 0 
Q 1100 0 847 248 
Q 594 497 594 1153 
L 594 3053 
L 172 3053 
L 172 3500 
L 594 3500 
L 594 4494 
L 1172 4494 
z
" transform="scale(0.015625)"/>
      <path id="DejaVuSans-64" d="M 2906 2969 
L 2906 4863 
L 3481 4863 
L 3481 0 
L 2906 0 
L 2906 525 
Q 2725 213 2448 61 
Q 2172 -91 1784 -91 
Q 1150 -91 751 415 
Q 353 922 353 1747 
Q 353 2572 751 3078 
Q 1150 3584 1784 3584 
Q 2172 3584 2448 3432 
Q 2725 3281 2906 2969 
z
M 947 1747 
Q 947 1113 1208 752 
Q 1469 391 1925 391 
Q 2381 391 2643 752 
Q 2906 1113 2906 1747 
Q 2906 2381 2643 2742 
Q 2381 3103 1925 3103 
Q 1469 3103 1208 2742 
Q 947 2381 947 1747 
z
" transform="scale(0.015625)"/>
     </defs>
     <use xlink:href="#DejaVuSans-46"/>
     <use xlink:href="#DejaVuSans-65" x="52.019531"/>
     <use xlink:href="#DejaVuSans-72" x="113.542969"/>
     <use xlink:href="#DejaVuSans-6d" x="152.90625"/>
     <use xlink:href="#DejaVuSans-65" x="250.318359"/>
     <use xlink:href="#DejaVuSans-6e" x="311.841797"/>
     <use xlink:href="#DejaVuSans-74" x="375.220703"/>
     <use xlink:href="#DejaVuSans-65" x="414.429688"/>
     <use xlink:href="#DejaVuSans-64" x="475.953125"/>
    </g>
   </g>
   <g id="text_7">
    <!-- Km-Cluster 1 -->
    <g style="fill: #262626" transform="translate(195.239263 243.906513)scale(0.144 -0.144)">
     <defs>
      <path id="DejaVuSans-4b" d="M 628 4666 
L 1259 4666 
L 1259 2694 
L 3353 4666 
L 4166 4666 
L 1850 2491 
L 4331 0 
L 3500 0 
L 1259 2247 
L 1259 0 
L 628 0 
L 628 4666 
z
" transform="scale(0.015625)"/>
      <path id="DejaVuSans-2d" d="M 313 2009 
L 1997 2009 
L 1997 1497 
L 313 1497 
L 313 2009 
z
" transform="scale(0.015625)"/>
      <path id="DejaVuSans-43" d="M 4122 4306 
L 4122 3641 
Q 3803 3938 3442 4084 
Q 3081 4231 2675 4231 
Q 1875 4231 1450 3742 
Q 1025 3253 1025 2328 
Q 1025 1406 1450 917 
Q 1875 428 2675 428 
Q 3081 428 3442 575 
Q 3803 722 4122 1019 
L 4122 359 
Q 3791 134 3420 21 
Q 3050 -91 2638 -91 
Q 1578 -91 968 557 
Q 359 1206 359 2328 
Q 359 3453 968 4101 
Q 1578 4750 2638 4750 
Q 3056 4750 3426 4639 
Q 3797 4528 4122 4306 
z
" transform="scale(0.015625)"/>
      <path id="DejaVuSans-6c" d="M 603 4863 
L 1178 4863 
L 1178 0 
L 603 0 
L 603 4863 
z
" transform="scale(0.015625)"/>
      <path id="DejaVuSans-75" d="M 544 1381 
L 544 3500 
L 1119 3500 
L 1119 1403 
Q 1119 906 1312 657 
Q 1506 409 1894 409 
Q 2359 409 2629 706 
Q 2900 1003 2900 1516 
L 2900 3500 
L 3475 3500 
L 3475 0 
L 2900 0 
L 2900 538 
Q 2691 219 2414 64 
Q 2138 -91 1772 -91 
Q 1169 -91 856 284 
Q 544 659 544 1381 
z
M 1991 3584 
L 1991 3584 
z
" transform="scale(0.015625)"/>
      <path id="DejaVuSans-73" d="M 2834 3397 
L 2834 2853 
Q 2591 2978 2328 3040 
Q 2066 3103 1784 3103 
Q 1356 3103 1142 2972 
Q 928 2841 928 2578 
Q 928 2378 1081 2264 
Q 1234 2150 1697 2047 
L 1894 2003 
Q 2506 1872 2764 1633 
Q 3022 1394 3022 966 
Q 3022 478 2636 193 
Q 2250 -91 1575 -91 
Q 1294 -91 989 -36 
Q 684 19 347 128 
L 347 722 
Q 666 556 975 473 
Q 1284 391 1588 391 
Q 1994 391 2212 530 
Q 2431 669 2431 922 
Q 2431 1156 2273 1281 
Q 2116 1406 1581 1522 
L 1381 1569 
Q 847 1681 609 1914 
Q 372 2147 372 2553 
Q 372 3047 722 3315 
Q 1072 3584 1716 3584 
Q 2034 3584 2315 3537 
Q 2597 3491 2834 3397 
z
" transform="scale(0.015625)"/>
      <path id="DejaVuSans-20" transform="scale(0.015625)"/>
     </defs>
     <use xlink:href="#DejaVuSans-4b"/>
     <use xlink:href="#DejaVuSans-6d" x="65.576172"/>
     <use xlink:href="#DejaVuSans-2d" x="162.988281"/>
     <use xlink:href="#DejaVuSans-43" x="199.072266"/>
     <use xlink:href="#DejaVuSans-6c" x="268.896484"/>
     <use xlink:href="#DejaVuSans-75" x="296.679688"/>
     <use xlink:href="#DejaVuSans-73" x="360.058594"/>
     <use xlink:href="#DejaVuSans-74" x="412.158203"/>
     <use xlink:href="#DejaVuSans-65" x="451.367188"/>
     <use xlink:href="#DejaVuSans-72" x="512.890625"/>
     <use xlink:href="#DejaVuSans-20" x="554.003906"/>
     <use xlink:href="#DejaVuSans-31" x="585.791016"/>
    </g>
   </g>
   <g id="text_8">
    <!-- Km-Cluster 2 -->
    <g style="fill: #262626" transform="translate(302.974035 254.789661)scale(0.144 -0.144)">
     <defs>
      <path id="DejaVuSans-32" d="M 1228 531 
L 3431 531 
L 3431 0 
L 469 0 
L 469 531 
Q 828 903 1448 1529 
Q 2069 2156 2228 2338 
Q 2531 2678 2651 2914 
Q 2772 3150 2772 3378 
Q 2772 3750 2511 3984 
Q 2250 4219 1831 4219 
Q 1534 4219 1204 4116 
Q 875 4013 500 3803 
L 500 4441 
Q 881 4594 1212 4672 
Q 1544 4750 1819 4750 
Q 2544 4750 2975 4387 
Q 3406 4025 3406 3419 
Q 3406 3131 3298 2873 
Q 3191 2616 2906 2266 
Q 2828 2175 2409 1742 
Q 1991 1309 1228 531 
z
" transform="scale(0.015625)"/>
     </defs>
     <use xlink:href="#DejaVuSans-4b"/>
     <use xlink:href="#DejaVuSans-6d" x="65.576172"/>
     <use xlink:href="#DejaVuSans-2d" x="162.988281"/>
     <use xlink:href="#DejaVuSans-43" x="199.072266"/>
     <use xlink:href="#DejaVuSans-6c" x="268.896484"/>
     <use xlink:href="#DejaVuSans-75" x="296.679688"/>
     <use xlink:href="#DejaVuSans-73" x="360.058594"/>
     <use xlink:href="#DejaVuSans-74" x="412.158203"/>
     <use xlink:href="#DejaVuSans-65" x="451.367188"/>
     <use xlink:href="#DejaVuSans-72" x="512.890625"/>
     <use xlink:href="#DejaVuSans-20" x="554.003906"/>
     <use xlink:href="#DejaVuSans-32" x="585.791016"/>
    </g>
   </g>
  </g>
  <g id="axes_2">
   <g id="patch_7">
    <path d="M 565.258239 255.026664 
C 551.93436 247.329919 540.868261 236.259897 533.176241 222.933289 
C 525.48422 209.606682 521.433923 194.487191 521.433923 179.1 
C 521.433923 163.712809 525.48422 148.593318 533.176241 135.266711 
C 540.868261 121.940103 551.93436 110.870081 565.258239 103.173336 
C 555.182086 103.006836 545.172857 104.847784 535.815361 108.58862 
C 526.457866 112.329455 517.937965 117.895875 510.753451 124.962652 
C 503.568936 132.029429 497.862511 140.456199 493.967582 149.750612 
C 490.072654 159.045025 488.066586 169.022472 488.066586 179.1 
C 488.066586 189.177528 490.072654 199.154975 493.967582 208.449388 
C 497.862511 217.743801 503.568936 226.170571 510.753451 233.237348 
C 517.937965 240.304125 526.457866 245.870545 535.815361 249.61138 
C 545.172857 253.352216 555.182086 255.193164 565.258239 255.026664 
" clip-path="url(#pda6de02808)" style="fill: #c44e52; opacity: 0.4"/>
   </g>
   <g id="patch_8">
    <path d="M 565.258239 103.173336 
C 585.170655 103.502372 604.175652 111.651854 618.140963 125.849836 
C 632.106273 140.047818 639.940644 159.184866 639.940644 179.1 
C 639.940644 199.015134 632.106273 218.152182 618.140963 232.350164 
C 604.175652 246.548146 585.170655 254.697628 565.258239 255.026664 
C 578.586681 262.726045 593.710447 266.781798 609.102907 266.784527 
C 624.495366 266.787256 639.620569 262.736865 652.95174 255.04221 
C 666.282911 247.347556 677.355872 236.276558 685.052889 222.946751 
C 692.749907 209.616945 696.802979 194.49246 696.802979 179.1 
C 696.802979 163.70754 692.749907 148.583055 685.052889 135.253249 
C 677.355872 121.923442 666.282911 110.852444 652.95174 103.15779 
C 639.620569 95.463135 624.495366 91.412744 609.102907 91.415473 
C 593.710447 91.418202 578.586681 95.473955 565.258239 103.173336 
" clip-path="url(#pda6de02808)" style="fill: #55a868; opacity: 0.4"/>
   </g>
   <g id="patch_9">
    <path d="M 565.258239 255.026664 
C 585.170655 254.697628 604.175652 246.548146 618.140963 232.350164 
C 632.106273 218.152182 639.940644 199.015134 639.940644 179.1 
C 639.940644 159.184866 632.106273 140.047818 618.140963 125.849836 
C 604.175652 111.651854 585.170655 103.502372 565.258239 103.173336 
C 551.93436 110.870081 540.868261 121.940103 533.176241 135.266711 
C 525.48422 148.593318 521.433923 163.712809 521.433923 179.1 
C 521.433923 194.487191 525.48422 209.606682 533.176241 222.933289 
C 540.868261 236.259897 551.93436 247.329919 565.258239 255.026664 
" clip-path="url(#pda6de02808)" style="fill: #c5ac82; opacity: 0.4"/>
   </g>
   <g id="text_9">
    <!-- 3 -->
    <g style="fill: #262626" transform="translate(500.932754 182.41125)scale(0.12 -0.12)">
     <defs>
      <path id="DejaVuSans-33" d="M 2597 2516 
Q 3050 2419 3304 2112 
Q 3559 1806 3559 1356 
Q 3559 666 3084 287 
Q 2609 -91 1734 -91 
Q 1441 -91 1130 -33 
Q 819 25 488 141 
L 488 750 
Q 750 597 1062 519 
Q 1375 441 1716 441 
Q 2309 441 2620 675 
Q 2931 909 2931 1356 
Q 2931 1769 2642 2001 
Q 2353 2234 1838 2234 
L 1294 2234 
L 1294 2753 
L 1863 2753 
Q 2328 2753 2575 2939 
Q 2822 3125 2822 3475 
Q 2822 3834 2567 4026 
Q 2313 4219 1838 4219 
Q 1578 4219 1281 4162 
Q 984 4106 628 3988 
L 628 4550 
Q 988 4650 1302 4700 
Q 1616 4750 1894 4750 
Q 2613 4750 3031 4423 
Q 3450 4097 3450 3541 
Q 3450 3153 3228 2886 
Q 3006 2619 2597 2516 
z
" transform="scale(0.015625)"/>
     </defs>
     <use xlink:href="#DejaVuSans-33"/>
    </g>
   </g>
   <g id="text_10">
    <!-- 7 -->
    <g style="fill: #262626" transform="translate(664.554312 182.41125)scale(0.12 -0.12)">
     <defs>
      <path id="DejaVuSans-37" d="M 525 4666 
L 3525 4666 
L 3525 4397 
L 1831 0 
L 1172 0 
L 2766 4134 
L 525 4134 
L 525 4666 
z
" transform="scale(0.015625)"/>
     </defs>
     <use xlink:href="#DejaVuSans-37"/>
    </g>
   </g>
   <g id="text_11">
    <!-- 9 -->
    <g style="fill: #262626" transform="translate(576.869783 182.41125)scale(0.12 -0.12)">
     <use xlink:href="#DejaVuSans-39"/>
    </g>
   </g>
   <g id="text_12">
    <!-- Cheesy -->
    <g style="fill: #262626" transform="translate(511.076865 274.159857)scale(0.144 -0.144)">
     <defs>
      <path id="DejaVuSans-68" d="M 3513 2113 
L 3513 0 
L 2938 0 
L 2938 2094 
Q 2938 2591 2744 2837 
Q 2550 3084 2163 3084 
Q 1697 3084 1428 2787 
Q 1159 2491 1159 1978 
L 1159 0 
L 581 0 
L 581 4863 
L 1159 4863 
L 1159 2956 
Q 1366 3272 1645 3428 
Q 1925 3584 2291 3584 
Q 2894 3584 3203 3211 
Q 3513 2838 3513 2113 
z
" transform="scale(0.015625)"/>
      <path id="DejaVuSans-79" d="M 2059 -325 
Q 1816 -950 1584 -1140 
Q 1353 -1331 966 -1331 
L 506 -1331 
L 506 -850 
L 844 -850 
Q 1081 -850 1212 -737 
Q 1344 -625 1503 -206 
L 1606 56 
L 191 3500 
L 800 3500 
L 1894 763 
L 2988 3500 
L 3597 3500 
L 2059 -325 
z
" transform="scale(0.015625)"/>
     </defs>
     <use xlink:href="#DejaVuSans-43"/>
     <use xlink:href="#DejaVuSans-68" x="69.824219"/>
     <use xlink:href="#DejaVuSans-65" x="133.203125"/>
     <use xlink:href="#DejaVuSans-65" x="194.726562"/>
     <use xlink:href="#DejaVuSans-73" x="256.25"/>
     <use xlink:href="#DejaVuSans-79" x="308.349609"/>
    </g>
   </g>
   <g id="text_13">
    <!-- Km-Cluster 1 -->
    <g style="fill: #262626" transform="translate(609.118451 285.907356)scale(0.144 -0.144)">
     <use xlink:href="#DejaVuSans-4b"/>
     <use xlink:href="#DejaVuSans-6d" x="65.576172"/>
     <use xlink:href="#DejaVuSans-2d" x="162.988281"/>
     <use xlink:href="#DejaVuSans-43" x="199.072266"/>
     <use xlink:href="#DejaVuSans-6c" x="268.896484"/>
     <use xlink:href="#DejaVuSans-75" x="296.679688"/>
     <use xlink:href="#DejaVuSans-73" x="360.058594"/>
     <use xlink:href="#DejaVuSans-74" x="412.158203"/>
     <use xlink:href="#DejaVuSans-65" x="451.367188"/>
     <use xlink:href="#DejaVuSans-72" x="512.890625"/>
     <use xlink:href="#DejaVuSans-20" x="554.003906"/>
     <use xlink:href="#DejaVuSans-31" x="585.791016"/>
    </g>
   </g>
  </g>
  <g id="axes_3">
   <g id="patch_10">
    <path d="M 888.508302 230.730431 
C 897.746171 233.384403 907.529217 233.511066 916.832701 231.097154 
C 926.136184 228.683241 934.623518 223.816085 941.405682 217.005502 
C 933.055542 214.778259 925.670862 209.853074 920.406004 202.999846 
C 915.141147 196.146619 912.285525 187.742074 912.285525 179.1 
C 912.285525 170.457926 915.141147 162.053381 920.406004 155.200154 
C 925.670862 148.346926 933.055542 143.421741 941.405682 141.194498 
C 934.623518 134.383915 926.136184 129.516759 916.832701 127.102846 
C 907.529217 124.688934 897.746171 124.815597 888.508302 127.469569 
C 895.963665 133.848413 901.949685 141.767036 906.053581 150.679394 
C 910.157477 159.591752 912.2827 169.288166 912.2827 179.1 
C 912.2827 188.911834 910.157477 198.608248 906.053581 207.520606 
C 901.949685 216.432964 895.963665 224.351587 888.508302 230.730431 
" clip-path="url(#pdb8434a83c)" style="fill: #c44e52; opacity: 0.4"/>
   </g>
   <g id="patch_11">
    <path d="M 888.508302 230.730431 
C 877.303311 227.511319 867.4451 220.730452 860.431351 211.417996 
C 853.417603 202.105539 849.622444 190.758238 849.622444 179.1 
C 849.622444 167.441762 853.417603 156.094461 860.431351 146.782004 
C 867.4451 137.469548 877.303311 130.688681 888.508302 127.469569 
C 878.639041 119.025383 866.552492 113.585447 853.687452 111.797337 
C 840.822411 110.009227 827.710461 111.946827 815.912459 117.379484 
C 804.114457 122.81214 794.117896 131.515376 787.112776 142.453151 
C 780.107657 153.390925 776.383429 166.111289 776.383429 179.1 
C 776.383429 192.088711 780.107657 204.809075 787.112776 215.746849 
C 794.117896 226.684624 804.114457 235.38786 815.912459 240.820516 
C 827.710461 246.253173 840.822411 248.190773 853.687452 246.402663 
C 866.552492 244.614553 878.639041 239.174617 888.508302 230.730431 
" clip-path="url(#pdb8434a83c)" style="fill: #55a868; opacity: 0.4"/>
   </g>
   <g id="patch_12">
    <path d="M 888.508302 127.469569 
C 877.303311 130.688681 867.4451 137.469548 860.431351 146.782004 
C 853.417603 156.094461 849.622444 167.441762 849.622444 179.1 
C 849.622444 190.758238 853.417603 202.105539 860.431351 211.417996 
C 867.4451 220.730452 877.303311 227.511319 888.508302 230.730431 
C 895.963665 224.351587 901.949685 216.432964 906.053581 207.520606 
C 910.157477 198.608248 912.2827 188.911834 912.2827 179.1 
C 912.2827 169.288166 910.157477 159.591752 906.053581 150.679394 
C 901.949685 141.767036 895.963665 133.848413 888.508302 127.469569 
" clip-path="url(#pdb8434a83c)" style="fill: #c5ac82; opacity: 0.4"/>
   </g>
   <g id="patch_13">
    <path d="M 941.405682 141.194498 
C 951.427583 151.258393 957.060251 164.897166 957.060251 179.1 
C 957.060251 193.302834 951.427583 206.941607 941.405682 217.005502 
C 947.216027 218.555303 953.305666 218.748594 959.202602 217.570394 
C 965.099537 216.392194 970.647374 213.873749 975.416112 210.210261 
C 980.184849 206.546772 984.048012 201.8354 986.706176 196.441314 
C 989.36434 191.047227 990.747006 185.113485 990.747006 179.1 
C 990.747006 173.086515 989.36434 167.152773 986.706176 161.758686 
C 984.048012 156.3646 980.184849 151.653228 975.416112 147.989739 
C 970.647374 144.326251 965.099537 141.807806 959.202602 140.629606 
C 953.305666 139.451406 947.216027 139.644697 941.405682 141.194498 
" clip-path="url(#pdb8434a83c)" style="fill: #4c72b0; opacity: 0.4"/>
   </g>
   <g id="patch_14">
    <path d="M 941.405682 217.005502 
C 951.427583 206.941607 957.060251 193.302834 957.060251 179.1 
C 957.060251 164.897166 951.427583 151.258393 941.405682 141.194498 
C 933.055542 143.421741 925.670862 148.346926 920.406004 155.200154 
C 915.141147 162.053381 912.285525 170.457926 912.285525 179.1 
C 912.285525 187.742074 915.141147 196.146619 920.406004 202.999846 
C 925.670862 209.853074 933.055542 214.778259 941.405682 217.005502 
" clip-path="url(#pdb8434a83c)" style="fill: #be86b5; opacity: 0.4"/>
   </g>
   <g id="text_14">
    <!-- 1 -->
    <g style="fill: #262626" transform="translate(909.964897 182.41125)scale(0.12 -0.12)">
     <use xlink:href="#DejaVuSans-31"/>
    </g>
   </g>
   <g id="text_15">
    <!-- 15 -->
    <g style="fill: #262626" transform="translate(805.367937 182.41125)scale(0.12 -0.12)">
     <use xlink:href="#DejaVuSans-31"/>
     <use xlink:href="#DejaVuSans-35" x="63.623047"/>
    </g>
   </g>
   <g id="text_16">
    <!-- 9 -->
    <g style="fill: #262626" transform="translate(877.135072 182.41125)scale(0.12 -0.12)">
     <use xlink:href="#DejaVuSans-39"/>
    </g>
   </g>
   <g id="text_17">
    <!-- 3 -->
    <g style="fill: #262626" transform="translate(970.086128 182.41125)scale(0.12 -0.12)">
     <use xlink:href="#DejaVuSans-33"/>
    </g>
   </g>
   <g id="text_18">
    <!-- 5 -->
    <g style="fill: #262626" transform="translate(930.855388 182.41125)scale(0.12 -0.12)">
     <use xlink:href="#DejaVuSans-35"/>
    </g>
   </g>
   <g id="text_19">
    <!-- Milky -->
    <g style="fill: #262626" transform="translate(884.958848 249.123963)scale(0.144 -0.144)">
     <defs>
      <path id="DejaVuSans-4d" d="M 628 4666 
L 1569 4666 
L 2759 1491 
L 3956 4666 
L 4897 4666 
L 4897 0 
L 4281 0 
L 4281 4097 
L 3078 897 
L 2444 897 
L 1241 4097 
L 1241 0 
L 628 0 
L 628 4666 
z
" transform="scale(0.015625)"/>
      <path id="DejaVuSans-69" d="M 603 3500 
L 1178 3500 
L 1178 0 
L 603 0 
L 603 3500 
z
M 603 4863 
L 1178 4863 
L 1178 4134 
L 603 4134 
L 603 4863 
z
" transform="scale(0.015625)"/>
      <path id="DejaVuSans-6b" d="M 581 4863 
L 1159 4863 
L 1159 1991 
L 2875 3500 
L 3609 3500 
L 1753 1863 
L 3688 0 
L 2938 0 
L 1159 1709 
L 1159 0 
L 581 0 
L 581 4863 
z
" transform="scale(0.015625)"/>
     </defs>
     <use xlink:href="#DejaVuSans-4d"/>
     <use xlink:href="#DejaVuSans-69" x="86.279297"/>
     <use xlink:href="#DejaVuSans-6c" x="114.0625"/>
     <use xlink:href="#DejaVuSans-6b" x="141.845703"/>
     <use xlink:href="#DejaVuSans-79" x="196.130859"/>
    </g>
   </g>
   <g id="text_20">
    <!-- Km-Cluster 2 -->
    <g style="fill: #262626" transform="translate(797.57694 263.354695)scale(0.144 -0.144)">
     <use xlink:href="#DejaVuSans-4b"/>
     <use xlink:href="#DejaVuSans-6d" x="65.576172"/>
     <use xlink:href="#DejaVuSans-2d" x="162.988281"/>
     <use xlink:href="#DejaVuSans-43" x="199.072266"/>
     <use xlink:href="#DejaVuSans-6c" x="268.896484"/>
     <use xlink:href="#DejaVuSans-75" x="296.679688"/>
     <use xlink:href="#DejaVuSans-73" x="360.058594"/>
     <use xlink:href="#DejaVuSans-74" x="412.158203"/>
     <use xlink:href="#DejaVuSans-65" x="451.367188"/>
     <use xlink:href="#DejaVuSans-72" x="512.890625"/>
     <use xlink:href="#DejaVuSans-20" x="554.003906"/>
     <use xlink:href="#DejaVuSans-32" x="585.791016"/>
    </g>
   </g>
   <g id="text_21">
    <!-- Km-Cluster 4 -->
    <g style="fill: #262626" transform="translate(904.76014 234.6358)scale(0.144 -0.144)">
     <defs>
      <path id="DejaVuSans-34" d="M 2419 4116 
L 825 1625 
L 2419 1625 
L 2419 4116 
z
M 2253 4666 
L 3047 4666 
L 3047 1625 
L 3713 1625 
L 3713 1100 
L 3047 1100 
L 3047 0 
L 2419 0 
L 2419 1100 
L 313 1100 
L 313 1709 
L 2253 4666 
z
" transform="scale(0.015625)"/>
     </defs>
     <use xlink:href="#DejaVuSans-4b"/>
     <use xlink:href="#DejaVuSans-6d" x="65.576172"/>
     <use xlink:href="#DejaVuSans-2d" x="162.988281"/>
     <use xlink:href="#DejaVuSans-43" x="199.072266"/>
     <use xlink:href="#DejaVuSans-6c" x="268.896484"/>
     <use xlink:href="#DejaVuSans-75" x="296.679688"/>
     <use xlink:href="#DejaVuSans-73" x="360.058594"/>
     <use xlink:href="#DejaVuSans-74" x="412.158203"/>
     <use xlink:href="#DejaVuSans-65" x="451.367188"/>
     <use xlink:href="#DejaVuSans-72" x="512.890625"/>
     <use xlink:href="#DejaVuSans-20" x="554.003906"/>
     <use xlink:href="#DejaVuSans-34" x="585.791016"/>
    </g>
   </g>
  </g>
  <g id="axes_4">
   <g id="patch_15">
    <path d="M 1174.695652 282.133079 
C 1147.38164 282.130658 1121.159234 271.26694 1101.846166 251.95216 
C 1082.533099 232.637381 1071.671704 206.414012 1071.671704 179.1 
C 1071.671704 151.785988 1082.533099 125.562619 1101.846166 106.24784 
C 1121.159234 86.93306 1147.38164 76.069342 1174.695652 76.066921 
C 1161.164704 76.065722 1147.765106 78.729988 1135.263796 83.907227 
C 1122.762486 89.084465 1111.40261 96.673982 1101.834361 106.241383 
C 1092.266111 115.808784 1084.675589 127.167987 1079.497242 139.668839 
C 1074.318895 152.16969 1071.653442 165.569052 1071.653442 179.1 
C 1071.653442 192.630948 1074.318895 206.03031 1079.497242 218.531161 
C 1084.675589 231.032013 1092.266111 242.391216 1101.834361 251.958617 
C 1111.40261 261.526018 1122.762486 269.115535 1135.263796 274.292773 
C 1147.765106 279.470012 1161.164704 282.134278 1174.695652 282.133079 
" clip-path="url(#pceb2623f56)" style="fill: #c44e52; opacity: 0.4"/>
   </g>
   <g id="patch_16">
    <path d="M 1174.695652 76.066921 
C 1202.009664 76.069342 1228.232071 86.93306 1247.545138 106.24784 
C 1266.858206 125.562619 1277.7196 151.785988 1277.7196 179.1 
C 1277.7196 206.414012 1266.858206 232.637381 1247.545138 251.95216 
C 1228.232071 271.26694 1202.009664 282.130658 1174.695652 282.133079 
C 1188.2266 282.134278 1201.626198 279.470012 1214.127508 274.292773 
C 1226.628819 269.115535 1237.988695 261.526018 1247.556944 251.958617 
C 1257.125193 242.391216 1264.715716 231.032013 1269.894062 218.531161 
C 1275.072409 206.03031 1277.737862 192.630948 1277.737862 179.1 
C 1277.737862 165.569052 1275.072409 152.16969 1269.894062 139.668839 
C 1264.715716 127.167987 1257.125193 115.808784 1247.556944 106.241383 
C 1237.988695 96.673982 1226.628819 89.084465 1214.127508 83.907227 
C 1201.626198 78.729988 1188.2266 76.065722 1174.695652 76.066921 
" clip-path="url(#pceb2623f56)" style="fill: #55a868; opacity: 0.4"/>
   </g>
   <g id="patch_17">
    <path d="M 1174.695652 282.133079 
C 1202.009664 282.130658 1228.232071 271.26694 1247.545138 251.95216 
C 1266.858206 232.637381 1277.7196 206.414012 1277.7196 179.1 
C 1277.7196 151.785988 1266.858206 125.562619 1247.545138 106.24784 
C 1228.232071 86.93306 1202.009664 76.069342 1174.695652 76.066921 
C 1147.38164 76.069342 1121.159234 86.93306 1101.846166 106.24784 
C 1082.533099 125.562619 1071.671704 151.785988 1071.671704 179.1 
C 1071.671704 206.414012 1082.533099 232.637381 1101.846166 251.95216 
C 1121.159234 271.26694 1147.38164 282.130658 1174.695652 282.133079 
" clip-path="url(#pceb2623f56)" style="fill: #c5ac82; opacity: 0.4"/>
   </g>
   <g id="text_22">
    <!-- 0 -->
    <g style="fill: #262626" transform="translate(1067.845073 182.41125)scale(0.12 -0.12)">
     <use xlink:href="#DejaVuSans-30"/>
    </g>
   </g>
   <g id="text_23">
    <!-- 0 -->
    <g style="fill: #262626" transform="translate(1273.911231 182.41125)scale(0.12 -0.12)">
     <use xlink:href="#DejaVuSans-30"/>
    </g>
   </g>
   <g id="text_24">
    <!-- 6 -->
    <g style="fill: #262626" transform="translate(1170.878152 182.41125)scale(0.12 -0.12)">
     <use xlink:href="#DejaVuSans-36"/>
    </g>
   </g>
   <g id="text_25">
    <!-- Fruity -->
    <g style="fill: #262626" transform="translate(1134.233771 303.378137)scale(0.144 -0.144)">
     <use xlink:href="#DejaVuSans-46"/>
     <use xlink:href="#DejaVuSans-72" x="50.269531"/>
     <use xlink:href="#DejaVuSans-75" x="91.382812"/>
     <use xlink:href="#DejaVuSans-69" x="154.761719"/>
     <use xlink:href="#DejaVuSans-74" x="182.544922"/>
     <use xlink:href="#DejaVuSans-79" x="221.753906"/>
    </g>
   </g>
   <g id="text_26">
    <!-- Km-Cluster 3 -->
    <g style="fill: #262626" transform="translate(1174.704783 303.378137)scale(0.144 -0.144)">
     <use xlink:href="#DejaVuSans-4b"/>
     <use xlink:href="#DejaVuSans-6d" x="65.576172"/>
     <use xlink:href="#DejaVuSans-2d" x="162.988281"/>
     <use xlink:href="#DejaVuSans-43" x="199.072266"/>
     <use xlink:href="#DejaVuSans-6c" x="268.896484"/>
     <use xlink:href="#DejaVuSans-75" x="296.679688"/>
     <use xlink:href="#DejaVuSans-73" x="360.058594"/>
     <use xlink:href="#DejaVuSans-74" x="412.158203"/>
     <use xlink:href="#DejaVuSans-65" x="451.367188"/>
     <use xlink:href="#DejaVuSans-72" x="512.890625"/>
     <use xlink:href="#DejaVuSans-20" x="554.003906"/>
     <use xlink:href="#DejaVuSans-33" x="585.791016"/>
    </g>
   </g>
  </g>
 </g>
 <defs>
  <clipPath id="p2f195c9e54">
   <rect x="180" y="106.221464" width="242.608696" height="145.757071"/>
  </clipPath>
  <clipPath id="pda6de02808">
   <rect x="471.130435" y="74.479321" width="242.608696" height="209.241359"/>
  </clipPath>
  <clipPath id="pdb8434a83c">
   <rect x="762.26087" y="97.027805" width="242.608696" height="164.14439"/>
  </clipPath>
  <clipPath id="pceb2623f56">
   <rect x="1053.391304" y="57.804783" width="242.608696" height="242.590434"/>
  </clipPath>
 </defs>
</svg>
