<?xml version="1.0" encoding="utf-8" standalone="no"?>
<!DOCTYPE svg PUBLIC "-//W3C//DTD SVG 1.1//EN"
  "http://www.w3.org/Graphics/SVG/1.1/DTD/svg11.dtd">
<svg xmlns:xlink="http://www.w3.org/1999/xlink" width="396pt" height="360pt" viewBox="0 0 396 360" xmlns="http://www.w3.org/2000/svg" version="1.1">
 <metadata>
  <rdf:RDF xmlns:dc="http://purl.org/dc/elements/1.1/" xmlns:cc="http://creativecommons.org/ns#" xmlns:rdf="http://www.w3.org/1999/02/22-rdf-syntax-ns#">
   <cc:Work>
    <dc:type rdf:resource="http://purl.org/dc/dcmitype/StillImage"/>
    <dc:date>2023-07-20T01:35:44.370395</dc:date>
    <dc:format>image/svg+xml</dc:format>
    <dc:creator>
     <cc:Agent>
      <dc:title>Matplotlib v3.5.1, https://matplotlib.org/</dc:title>
     </cc:Agent>
    </dc:creator>
   </cc:Work>
  </rdf:RDF>
 </metadata>
 <defs>
  <style type="text/css">*{stroke-linejoin: round; stroke-linecap: butt}</style>
 </defs>
 <g id="figure_1">
  <g id="patch_1">
   <path d="M 0 360 
L 396 360 
L 396 0 
L 0 0 
z
" style="fill: #ffffff"/>
  </g>
  <g id="axes_1">
   <g id="patch_2">
    <path d="M 49.5 315 
L 356.4 315 
L 356.4 43.2 
L 49.5 43.2 
z
" style="fill: #eaeaf2"/>
   </g>
   <g id="matplotlib.axis_1">
    <g id="xtick_1">
     <g id="line2d_1">
      <path d="M 67.58615 315 
L 67.58615 43.2 
" clip-path="url(#p866829473e)" style="fill: none; stroke: #ffffff; stroke-linecap: round"/>
     </g>
     <g id="text_1">
      <!-- −3 -->
      <g style="fill: #262626" transform="translate(59.477947 332.858281)scale(0.11 -0.11)">
       <defs>
        <path id="DejaVuSans-2212" d="M 678 2272 
L 4684 2272 
L 4684 1741 
L 678 1741 
L 678 2272 
z
" transform="scale(0.015625)"/>
        <path id="DejaVuSans-33" d="M 2597 2516 
Q 3050 2419 3304 2112 
Q 3559 1806 3559 1356 
Q 3559 666 3084 287 
Q 2609 -91 1734 -91 
Q 1441 -91 1130 -33 
Q 819 25 488 141 
L 488 750 
Q 750 597 1062 519 
Q 1375 441 1716 441 
Q 2309 441 2620 675 
Q 2931 909 2931 1356 
Q 2931 1769 2642 2001 
Q 2353 2234 1838 2234 
L 1294 2234 
L 1294 2753 
L 1863 2753 
Q 2328 2753 2575 2939 
Q 2822 3125 2822 3475 
Q 2822 3834 2567 4026 
Q 2313 4219 1838 4219 
Q 1578 4219 1281 4162 
Q 984 4106 628 3988 
L 628 4550 
Q 988 4650 1302 4700 
Q 1616 4750 1894 4750 
Q 2613 4750 3031 4423 
Q 3450 4097 3450 3541 
Q 3450 3153 3228 2886 
Q 3006 2619 2597 2516 
z
" transform="scale(0.015625)"/>
       </defs>
       <use xlink:href="#DejaVuSans-2212"/>
       <use xlink:href="#DejaVuSans-33" x="83.789062"/>
      </g>
     </g>
    </g>
    <g id="xtick_2">
     <g id="line2d_2">
      <path d="M 104.793343 315 
L 104.793343 43.2 
" clip-path="url(#p866829473e)" style="fill: none; stroke: #ffffff; stroke-linecap: round"/>
     </g>
     <g id="text_2">
      <!-- −2 -->
      <g style="fill: #262626" transform="translate(96.685139 332.858281)scale(0.11 -0.11)">
       <defs>
        <path id="DejaVuSans-32" d="M 1228 531 
L 3431 531 
L 3431 0 
L 469 0 
L 469 531 
Q 828 903 1448 1529 
Q 2069 2156 2228 2338 
Q 2531 2678 2651 2914 
Q 2772 3150 2772 3378 
Q 2772 3750 2511 3984 
Q 2250 4219 1831 4219 
Q 1534 4219 1204 4116 
Q 875 4013 500 3803 
L 500 4441 
Q 881 4594 1212 4672 
Q 1544 4750 1819 4750 
Q 2544 4750 2975 4387 
Q 3406 4025 3406 3419 
Q 3406 3131 3298 2873 
Q 3191 2616 2906 2266 
Q 2828 2175 2409 1742 
Q 1991 1309 1228 531 
z
" transform="scale(0.015625)"/>
       </defs>
       <use xlink:href="#DejaVuSans-2212"/>
       <use xlink:href="#DejaVuSans-32" x="83.789062"/>
      </g>
     </g>
    </g>
    <g id="xtick_3">
     <g id="line2d_3">
      <path d="M 142.000535 315 
L 142.000535 43.2 
" clip-path="url(#p866829473e)" style="fill: none; stroke: #ffffff; stroke-linecap: round"/>
     </g>
     <g id="text_3">
      <!-- −1 -->
      <g style="fill: #262626" transform="translate(133.892332 332.858281)scale(0.11 -0.11)">
       <defs>
        <path id="DejaVuSans-31" d="M 794 531 
L 1825 531 
L 1825 4091 
L 703 3866 
L 703 4441 
L 1819 4666 
L 2450 4666 
L 2450 531 
L 3481 531 
L 3481 0 
L 794 0 
L 794 531 
z
" transform="scale(0.015625)"/>
       </defs>
       <use xlink:href="#DejaVuSans-2212"/>
       <use xlink:href="#DejaVuSans-31" x="83.789062"/>
      </g>
     </g>
    </g>
    <g id="xtick_4">
     <g id="line2d_4">
      <path d="M 179.207727 315 
L 179.207727 43.2 
" clip-path="url(#p866829473e)" style="fill: none; stroke: #ffffff; stroke-linecap: round"/>
     </g>
     <g id="text_4">
      <!-- 0 -->
      <g style="fill: #262626" transform="translate(175.708352 332.858281)scale(0.11 -0.11)">
       <defs>
        <path id="DejaVuSans-30" d="M 2034 4250 
Q 1547 4250 1301 3770 
Q 1056 3291 1056 2328 
Q 1056 1369 1301 889 
Q 1547 409 2034 409 
Q 2525 409 2770 889 
Q 3016 1369 3016 2328 
Q 3016 3291 2770 3770 
Q 2525 4250 2034 4250 
z
M 2034 4750 
Q 2819 4750 3233 4129 
Q 3647 3509 3647 2328 
Q 3647 1150 3233 529 
Q 2819 -91 2034 -91 
Q 1250 -91 836 529 
Q 422 1150 422 2328 
Q 422 3509 836 4129 
Q 1250 4750 2034 4750 
z
" transform="scale(0.015625)"/>
       </defs>
       <use xlink:href="#DejaVuSans-30"/>
      </g>
     </g>
    </g>
    <g id="xtick_5">
     <g id="line2d_5">
      <path d="M 216.414919 315 
L 216.414919 43.2 
" clip-path="url(#p866829473e)" style="fill: none; stroke: #ffffff; stroke-linecap: round"/>
     </g>
     <g id="text_5">
      <!-- 1 -->
      <g style="fill: #262626" transform="translate(212.915544 332.858281)scale(0.11 -0.11)">
       <use xlink:href="#DejaVuSans-31"/>
      </g>
     </g>
    </g>
    <g id="xtick_6">
     <g id="line2d_6">
      <path d="M 253.622111 315 
L 253.622111 43.2 
" clip-path="url(#p866829473e)" style="fill: none; stroke: #ffffff; stroke-linecap: round"/>
     </g>
     <g id="text_6">
      <!-- 2 -->
      <g style="fill: #262626" transform="translate(250.122736 332.858281)scale(0.11 -0.11)">
       <use xlink:href="#DejaVuSans-32"/>
      </g>
     </g>
    </g>
    <g id="xtick_7">
     <g id="line2d_7">
      <path d="M 290.829303 315 
L 290.829303 43.2 
" clip-path="url(#p866829473e)" style="fill: none; stroke: #ffffff; stroke-linecap: round"/>
     </g>
     <g id="text_7">
      <!-- 3 -->
      <g style="fill: #262626" transform="translate(287.329928 332.858281)scale(0.11 -0.11)">
       <use xlink:href="#DejaVuSans-33"/>
      </g>
     </g>
    </g>
    <g id="xtick_8">
     <g id="line2d_8">
      <path d="M 328.036496 315 
L 328.036496 43.2 
" clip-path="url(#p866829473e)" style="fill: none; stroke: #ffffff; stroke-linecap: round"/>
     </g>
     <g id="text_8">
      <!-- 4 -->
      <g style="fill: #262626" transform="translate(324.537121 332.858281)scale(0.11 -0.11)">
       <defs>
        <path id="DejaVuSans-34" d="M 2419 4116 
L 825 1625 
L 2419 1625 
L 2419 4116 
z
M 2253 4666 
L 3047 4666 
L 3047 1625 
L 3713 1625 
L 3713 1100 
L 3047 1100 
L 3047 0 
L 2419 0 
L 2419 1100 
L 313 1100 
L 313 1709 
L 2253 4666 
z
" transform="scale(0.015625)"/>
       </defs>
       <use xlink:href="#DejaVuSans-34"/>
      </g>
     </g>
    </g>
    <g id="text_9">
     <!-- PC1(23.0%) -->
     <g style="fill: #262626" transform="translate(167.582813 348.264063)scale(0.12 -0.12)">
      <defs>
       <path id="DejaVuSans-50" d="M 1259 4147 
L 1259 2394 
L 2053 2394 
Q 2494 2394 2734 2622 
Q 2975 2850 2975 3272 
Q 2975 3691 2734 3919 
Q 2494 4147 2053 4147 
L 1259 4147 
z
M 628 4666 
L 2053 4666 
Q 2838 4666 3239 4311 
Q 3641 3956 3641 3272 
Q 3641 2581 3239 2228 
Q 2838 1875 2053 1875 
L 1259 1875 
L 1259 0 
L 628 0 
L 628 4666 
z
" transform="scale(0.015625)"/>
       <path id="DejaVuSans-43" d="M 4122 4306 
L 4122 3641 
Q 3803 3938 3442 4084 
Q 3081 4231 2675 4231 
Q 1875 4231 1450 3742 
Q 1025 3253 1025 2328 
Q 1025 1406 1450 917 
Q 1875 428 2675 428 
Q 3081 428 3442 575 
Q 3803 722 4122 1019 
L 4122 359 
Q 3791 134 3420 21 
Q 3050 -91 2638 -91 
Q 1578 -91 968 557 
Q 359 1206 359 2328 
Q 359 3453 968 4101 
Q 1578 4750 2638 4750 
Q 3056 4750 3426 4639 
Q 3797 4528 4122 4306 
z
" transform="scale(0.015625)"/>
       <path id="DejaVuSans-28" d="M 1984 4856 
Q 1566 4138 1362 3434 
Q 1159 2731 1159 2009 
Q 1159 1288 1364 580 
Q 1569 -128 1984 -844 
L 1484 -844 
Q 1016 -109 783 600 
Q 550 1309 550 2009 
Q 550 2706 781 3412 
Q 1013 4119 1484 4856 
L 1984 4856 
z
" transform="scale(0.015625)"/>
       <path id="DejaVuSans-2e" d="M 684 794 
L 1344 794 
L 1344 0 
L 684 0 
L 684 794 
z
" transform="scale(0.015625)"/>
       <path id="DejaVuSans-25" d="M 4653 2053 
Q 4381 2053 4226 1822 
Q 4072 1591 4072 1178 
Q 4072 772 4226 539 
Q 4381 306 4653 306 
Q 4919 306 5073 539 
Q 5228 772 5228 1178 
Q 5228 1588 5073 1820 
Q 4919 2053 4653 2053 
z
M 4653 2450 
Q 5147 2450 5437 2106 
Q 5728 1763 5728 1178 
Q 5728 594 5436 251 
Q 5144 -91 4653 -91 
Q 4153 -91 3862 251 
Q 3572 594 3572 1178 
Q 3572 1766 3864 2108 
Q 4156 2450 4653 2450 
z
M 1428 4353 
Q 1159 4353 1004 4120 
Q 850 3888 850 3481 
Q 850 3069 1003 2837 
Q 1156 2606 1428 2606 
Q 1700 2606 1854 2837 
Q 2009 3069 2009 3481 
Q 2009 3884 1853 4118 
Q 1697 4353 1428 4353 
z
M 4250 4750 
L 4750 4750 
L 1831 -91 
L 1331 -91 
L 4250 4750 
z
M 1428 4750 
Q 1922 4750 2215 4408 
Q 2509 4066 2509 3481 
Q 2509 2891 2217 2550 
Q 1925 2209 1428 2209 
Q 931 2209 642 2551 
Q 353 2894 353 3481 
Q 353 4063 643 4406 
Q 934 4750 1428 4750 
z
" transform="scale(0.015625)"/>
       <path id="DejaVuSans-29" d="M 513 4856 
L 1013 4856 
Q 1481 4119 1714 3412 
Q 1947 2706 1947 2009 
Q 1947 1309 1714 600 
Q 1481 -109 1013 -844 
L 513 -844 
Q 928 -128 1133 580 
Q 1338 1288 1338 2009 
Q 1338 2731 1133 3434 
Q 928 4138 513 4856 
z
" transform="scale(0.015625)"/>
      </defs>
      <use xlink:href="#DejaVuSans-50"/>
      <use xlink:href="#DejaVuSans-43" x="60.302734"/>
      <use xlink:href="#DejaVuSans-31" x="130.126953"/>
      <use xlink:href="#DejaVuSans-28" x="193.75"/>
      <use xlink:href="#DejaVuSans-32" x="232.763672"/>
      <use xlink:href="#DejaVuSans-33" x="296.386719"/>
      <use xlink:href="#DejaVuSans-2e" x="360.009766"/>
      <use xlink:href="#DejaVuSans-30" x="391.796875"/>
      <use xlink:href="#DejaVuSans-25" x="455.419922"/>
      <use xlink:href="#DejaVuSans-29" x="550.439453"/>
     </g>
    </g>
   </g>
   <g id="matplotlib.axis_2">
    <g id="ytick_1">
     <g id="line2d_9">
      <path d="M 49.5 304.444674 
L 356.4 304.444674 
" clip-path="url(#p866829473e)" style="fill: none; stroke: #ffffff; stroke-linecap: round"/>
     </g>
     <g id="text_10">
      <!-- −3 -->
      <g style="fill: #262626" transform="translate(23.783594 308.623815)scale(0.11 -0.11)">
       <use xlink:href="#DejaVuSans-2212"/>
       <use xlink:href="#DejaVuSans-33" x="83.789062"/>
      </g>
     </g>
    </g>
    <g id="ytick_2">
     <g id="line2d_10">
      <path d="M 49.5 266.861121 
L 356.4 266.861121 
" clip-path="url(#p866829473e)" style="fill: none; stroke: #ffffff; stroke-linecap: round"/>
     </g>
     <g id="text_11">
      <!-- −2 -->
      <g style="fill: #262626" transform="translate(23.783594 271.040262)scale(0.11 -0.11)">
       <use xlink:href="#DejaVuSans-2212"/>
       <use xlink:href="#DejaVuSans-32" x="83.789062"/>
      </g>
     </g>
    </g>
    <g id="ytick_3">
     <g id="line2d_11">
      <path d="M 49.5 229.277568 
L 356.4 229.277568 
" clip-path="url(#p866829473e)" style="fill: none; stroke: #ffffff; stroke-linecap: round"/>
     </g>
     <g id="text_12">
      <!-- −1 -->
      <g style="fill: #262626" transform="translate(23.783594 233.456709)scale(0.11 -0.11)">
       <use xlink:href="#DejaVuSans-2212"/>
       <use xlink:href="#DejaVuSans-31" x="83.789062"/>
      </g>
     </g>
    </g>
    <g id="ytick_4">
     <g id="line2d_12">
      <path d="M 49.5 191.694015 
L 356.4 191.694015 
" clip-path="url(#p866829473e)" style="fill: none; stroke: #ffffff; stroke-linecap: round"/>
     </g>
     <g id="text_13">
      <!-- 0 -->
      <g style="fill: #262626" transform="translate(33.00125 195.873155)scale(0.11 -0.11)">
       <use xlink:href="#DejaVuSans-30"/>
      </g>
     </g>
    </g>
    <g id="ytick_5">
     <g id="line2d_13">
      <path d="M 49.5 154.110462 
L 356.4 154.110462 
" clip-path="url(#p866829473e)" style="fill: none; stroke: #ffffff; stroke-linecap: round"/>
     </g>
     <g id="text_14">
      <!-- 1 -->
      <g style="fill: #262626" transform="translate(33.00125 158.289602)scale(0.11 -0.11)">
       <use xlink:href="#DejaVuSans-31"/>
      </g>
     </g>
    </g>
    <g id="ytick_6">
     <g id="line2d_14">
      <path d="M 49.5 116.526908 
L 356.4 116.526908 
" clip-path="url(#p866829473e)" style="fill: none; stroke: #ffffff; stroke-linecap: round"/>
     </g>
     <g id="text_15">
      <!-- 2 -->
      <g style="fill: #262626" transform="translate(33.00125 120.706049)scale(0.11 -0.11)">
       <use xlink:href="#DejaVuSans-32"/>
      </g>
     </g>
    </g>
    <g id="ytick_7">
     <g id="line2d_15">
      <path d="M 49.5 78.943355 
L 356.4 78.943355 
" clip-path="url(#p866829473e)" style="fill: none; stroke: #ffffff; stroke-linecap: round"/>
     </g>
     <g id="text_16">
      <!-- 3 -->
      <g style="fill: #262626" transform="translate(33.00125 83.122496)scale(0.11 -0.11)">
       <use xlink:href="#DejaVuSans-33"/>
      </g>
     </g>
    </g>
    <g id="text_17">
     <!-- PC2(15.3%) -->
     <g style="fill: #262626" transform="translate(17.287969 214.467187)rotate(-90)scale(0.12 -0.12)">
      <defs>
       <path id="DejaVuSans-35" d="M 691 4666 
L 3169 4666 
L 3169 4134 
L 1269 4134 
L 1269 2991 
Q 1406 3038 1543 3061 
Q 1681 3084 1819 3084 
Q 2600 3084 3056 2656 
Q 3513 2228 3513 1497 
Q 3513 744 3044 326 
Q 2575 -91 1722 -91 
Q 1428 -91 1123 -41 
Q 819 9 494 109 
L 494 744 
Q 775 591 1075 516 
Q 1375 441 1709 441 
Q 2250 441 2565 725 
Q 2881 1009 2881 1497 
Q 2881 1984 2565 2268 
Q 2250 2553 1709 2553 
Q 1456 2553 1204 2497 
Q 953 2441 691 2322 
L 691 4666 
z
" transform="scale(0.015625)"/>
      </defs>
      <use xlink:href="#DejaVuSans-50"/>
      <use xlink:href="#DejaVuSans-43" x="60.302734"/>
      <use xlink:href="#DejaVuSans-32" x="130.126953"/>
      <use xlink:href="#DejaVuSans-28" x="193.75"/>
      <use xlink:href="#DejaVuSans-31" x="232.763672"/>
      <use xlink:href="#DejaVuSans-35" x="296.386719"/>
      <use xlink:href="#DejaVuSans-2e" x="360.009766"/>
      <use xlink:href="#DejaVuSans-33" x="391.796875"/>
      <use xlink:href="#DejaVuSans-25" x="455.419922"/>
      <use xlink:href="#DejaVuSans-29" x="550.439453"/>
     </g>
    </g>
   </g>
   <g id="PathCollection_1">
    <defs>
     <path id="C0_0_312408ec12" d="M 0 3.535534 
C 0.937635 3.535534 1.836992 3.163008 2.5 2.5 
C 3.163008 1.836992 3.535534 0.937635 3.535534 -0 
C 3.535534 -0.937635 3.163008 -1.836992 2.5 -2.5 
C 1.836992 -3.163008 0.937635 -3.535534 0 -3.535534 
C -0.937635 -3.535534 -1.836992 -3.163008 -2.5 -2.5 
C -3.163008 -1.836992 -3.535534 -0.937635 -3.535534 0 
C -3.535534 0.937635 -3.163008 1.836992 -2.5 2.5 
C -1.836992 3.163008 -0.937635 3.535534 0 3.535534 
z
"/>
    </defs>
    <g clip-path="url(#p866829473e)">
     <use xlink:href="#C0_0_312408ec12" x="256.471897" y="252.548271" style="fill: #d62728; stroke: #000000"/>
    </g>
    <g clip-path="url(#p866829473e)">
     <use xlink:href="#C0_0_312408ec12" x="253.21205" y="229.980035" style="fill: #d62728; stroke: #000000"/>
    </g>
    <g clip-path="url(#p866829473e)">
     <use xlink:href="#C0_0_312408ec12" x="314.06026" y="266.715961" style="fill: #d62728; stroke: #000000"/>
    </g>
    <g clip-path="url(#p866829473e)">
     <use xlink:href="#C0_0_312408ec12" x="79.928238" y="203.942938" style="fill: #1f77b4; stroke: #000000"/>
    </g>
    <g clip-path="url(#p866829473e)">
     <use xlink:href="#C0_0_312408ec12" x="109.319587" y="244.453175" style="fill: #1f77b4; stroke: #000000"/>
    </g>
    <g clip-path="url(#p866829473e)">
     <use xlink:href="#C0_0_312408ec12" x="93.056786" y="200.898563" style="fill: #1f77b4; stroke: #000000"/>
    </g>
    <g clip-path="url(#p866829473e)">
     <use xlink:href="#C0_0_312408ec12" x="70.68358" y="227.574524" style="fill: #1f77b4; stroke: #000000"/>
    </g>
    <g clip-path="url(#p866829473e)">
     <use xlink:href="#C0_0_312408ec12" x="63.45" y="213.423608" style="fill: #1f77b4; stroke: #000000"/>
    </g>
    <g clip-path="url(#p866829473e)">
     <use xlink:href="#C0_0_312408ec12" x="71.991622" y="232.809721" style="fill: #1f77b4; stroke: #000000"/>
    </g>
    <g clip-path="url(#p866829473e)">
     <use xlink:href="#C0_0_312408ec12" x="116.919009" y="252.799933" style="fill: #1f77b4; stroke: #000000"/>
    </g>
    <g clip-path="url(#p866829473e)">
     <use xlink:href="#C0_0_312408ec12" x="69.950888" y="243.117387" style="fill: #1f77b4; stroke: #000000"/>
    </g>
    <g clip-path="url(#p866829473e)">
     <use xlink:href="#C0_0_312408ec12" x="86.931246" y="200.045017" style="fill: #1f77b4; stroke: #000000"/>
    </g>
    <g clip-path="url(#p866829473e)">
     <use xlink:href="#C0_0_312408ec12" x="117.385764" y="199.805837" style="fill: #1f77b4; stroke: #000000"/>
    </g>
    <g clip-path="url(#p866829473e)">
     <use xlink:href="#C0_0_312408ec12" x="116.638554" y="182.457955" style="fill: #1f77b4; stroke: #000000"/>
    </g>
    <g clip-path="url(#p866829473e)">
     <use xlink:href="#C0_0_312408ec12" x="123.070386" y="198.561995" style="fill: #1f77b4; stroke: #000000"/>
    </g>
    <g clip-path="url(#p866829473e)">
     <use xlink:href="#C0_0_312408ec12" x="156.901882" y="302.645455" style="fill: #1f77b4; stroke: #000000"/>
    </g>
    <g clip-path="url(#p866829473e)">
     <use xlink:href="#C0_0_312408ec12" x="127.314123" y="215.974969" style="fill: #1f77b4; stroke: #000000"/>
    </g>
    <g clip-path="url(#p866829473e)">
     <use xlink:href="#C0_0_312408ec12" x="153.70917" y="259.229378" style="fill: #1f77b4; stroke: #000000"/>
    </g>
    <g clip-path="url(#p866829473e)">
     <use xlink:href="#C0_0_312408ec12" x="237.35116" y="280.740316" style="fill: #d62728; stroke: #000000"/>
    </g>
    <g clip-path="url(#p866829473e)">
     <use xlink:href="#C0_0_312408ec12" x="216.088517" y="299.204319" style="fill: #d62728; stroke: #000000"/>
    </g>
    <g clip-path="url(#p866829473e)">
     <use xlink:href="#C0_0_312408ec12" x="249.91487" y="247.470766" style="fill: #d62728; stroke: #000000"/>
    </g>
    <g clip-path="url(#p866829473e)">
     <use xlink:href="#C0_0_312408ec12" x="342.45" y="200.707358" style="fill: #d62728; stroke: #000000"/>
    </g>
    <g clip-path="url(#p866829473e)">
     <use xlink:href="#C0_0_312408ec12" x="334.524646" y="280.595085" style="fill: #d62728; stroke: #000000"/>
    </g>
    <g clip-path="url(#p866829473e)">
     <use xlink:href="#C0_0_312408ec12" x="330.744766" y="234.376533" style="fill: #d62728; stroke: #000000"/>
    </g>
    <g clip-path="url(#p866829473e)">
     <use xlink:href="#C0_0_312408ec12" x="311.000555" y="194.501822" style="fill: #d62728; stroke: #000000"/>
    </g>
    <g clip-path="url(#p866829473e)">
     <use xlink:href="#C0_0_312408ec12" x="327.184932" y="279.267267" style="fill: #d62728; stroke: #000000"/>
    </g>
    <g clip-path="url(#p866829473e)">
     <use xlink:href="#C0_0_312408ec12" x="326.509325" y="207.837986" style="fill: #d62728; stroke: #000000"/>
    </g>
    <g clip-path="url(#p866829473e)">
     <use xlink:href="#C0_0_312408ec12" x="155.922096" y="55.601034" style="fill: #17becf; stroke: #000000"/>
    </g>
    <g clip-path="url(#p866829473e)">
     <use xlink:href="#C0_0_312408ec12" x="132.585464" y="100.850677" style="fill: #17becf; stroke: #000000"/>
    </g>
    <g clip-path="url(#p866829473e)">
     <use xlink:href="#C0_0_312408ec12" x="156.500395" y="92.815638" style="fill: #17becf; stroke: #000000"/>
    </g>
    <g clip-path="url(#p866829473e)">
     <use xlink:href="#C0_0_312408ec12" x="201.575935" y="191.591902" style="fill: #d62728; stroke: #000000"/>
    </g>
    <g clip-path="url(#p866829473e)">
     <use xlink:href="#C0_0_312408ec12" x="254.381653" y="192.720488" style="fill: #d62728; stroke: #000000"/>
    </g>
    <g clip-path="url(#p866829473e)">
     <use xlink:href="#C0_0_312408ec12" x="287.263791" y="120.72816" style="fill: #d62728; stroke: #000000"/>
    </g>
    <g clip-path="url(#p866829473e)">
     <use xlink:href="#C0_0_312408ec12" x="103.698761" y="194.547744" style="fill: #1f77b4; stroke: #000000"/>
    </g>
    <g clip-path="url(#p866829473e)">
     <use xlink:href="#C0_0_312408ec12" x="98.803576" y="202.749827" style="fill: #1f77b4; stroke: #000000"/>
    </g>
    <g clip-path="url(#p866829473e)">
     <use xlink:href="#C0_0_312408ec12" x="136.921723" y="180.225672" style="fill: #1f77b4; stroke: #000000"/>
    </g>
    <g clip-path="url(#p866829473e)">
     <use xlink:href="#C0_0_312408ec12" x="103.221273" y="72.542995" style="fill: #17becf; stroke: #000000"/>
    </g>
    <g clip-path="url(#p866829473e)">
     <use xlink:href="#C0_0_312408ec12" x="75.855838" y="105.755208" style="fill: #17becf; stroke: #000000"/>
    </g>
    <g clip-path="url(#p866829473e)">
     <use xlink:href="#C0_0_312408ec12" x="83.502395" y="112.920479" style="fill: #17becf; stroke: #000000"/>
    </g>
    <g clip-path="url(#p866829473e)">
     <use xlink:href="#C0_0_312408ec12" x="96.782427" y="212.413515" style="fill: #1f77b4; stroke: #000000"/>
    </g>
    <g clip-path="url(#p866829473e)">
     <use xlink:href="#C0_0_312408ec12" x="114.382135" y="225.336659" style="fill: #1f77b4; stroke: #000000"/>
    </g>
    <g clip-path="url(#p866829473e)">
     <use xlink:href="#C0_0_312408ec12" x="88.657786" y="241.791458" style="fill: #1f77b4; stroke: #000000"/>
    </g>
    <g clip-path="url(#p866829473e)">
     <use xlink:href="#C0_0_312408ec12" x="198.261406" y="153.329639" style="fill: #17becf; stroke: #000000"/>
    </g>
    <g clip-path="url(#p866829473e)">
     <use xlink:href="#C0_0_312408ec12" x="160.287857" y="144.052569" style="fill: #17becf; stroke: #000000"/>
    </g>
    <g clip-path="url(#p866829473e)">
     <use xlink:href="#C0_0_312408ec12" x="257.846347" y="216.467525" style="fill: #d62728; stroke: #000000"/>
    </g>
    <g clip-path="url(#p866829473e)">
     <use xlink:href="#C0_0_312408ec12" x="145.127304" y="280.489791" style="fill: #1f77b4; stroke: #000000"/>
    </g>
    <g clip-path="url(#p866829473e)">
     <use xlink:href="#C0_0_312408ec12" x="153.402443" y="249.416602" style="fill: #1f77b4; stroke: #000000"/>
    </g>
    <g clip-path="url(#p866829473e)">
     <use xlink:href="#C0_0_312408ec12" x="140.349382" y="249.462631" style="fill: #1f77b4; stroke: #000000"/>
    </g>
    <g clip-path="url(#p866829473e)">
     <use xlink:href="#C0_0_312408ec12" x="246.414412" y="85.76264" style="fill: #e377c2; stroke: #000000"/>
    </g>
    <g clip-path="url(#p866829473e)">
     <use xlink:href="#C0_0_312408ec12" x="216.114924" y="61.337853" style="fill: #e377c2; stroke: #000000"/>
    </g>
    <g clip-path="url(#p866829473e)">
     <use xlink:href="#C0_0_312408ec12" x="193.451863" y="67.626631" style="fill: #e377c2; stroke: #000000"/>
    </g>
    <g clip-path="url(#p866829473e)">
     <use xlink:href="#C0_0_312408ec12" x="261.966285" y="58.739911" style="fill: #e377c2; stroke: #000000"/>
    </g>
    <g clip-path="url(#p866829473e)">
     <use xlink:href="#C0_0_312408ec12" x="264.701351" y="55.554545" style="fill: #e377c2; stroke: #000000"/>
    </g>
    <g clip-path="url(#p866829473e)">
     <use xlink:href="#C0_0_312408ec12" x="292.474615" y="74.958832" style="fill: #e377c2; stroke: #000000"/>
    </g>
   </g>
   <g id="patch_3">
    <path d="M 49.5 315 
L 49.5 43.2 
" style="fill: none; stroke: #ffffff; stroke-width: 1.25; stroke-linejoin: miter; stroke-linecap: square"/>
   </g>
   <g id="patch_4">
    <path d="M 356.4 315 
L 356.4 43.2 
" style="fill: none; stroke: #ffffff; stroke-width: 1.25; stroke-linejoin: miter; stroke-linecap: square"/>
   </g>
   <g id="patch_5">
    <path d="M 49.5 315 
L 356.4 315 
" style="fill: none; stroke: #ffffff; stroke-width: 1.25; stroke-linejoin: miter; stroke-linecap: square"/>
   </g>
   <g id="patch_6">
    <path d="M 49.5 43.2 
L 356.4 43.2 
" style="fill: none; stroke: #ffffff; stroke-width: 1.25; stroke-linejoin: miter; stroke-linecap: square"/>
   </g>
   <g id="text_18">
    <!-- K-means clustering (n=4) of 54 yogurt samples(w/o outliers) -->
    <g style="fill: #262626" transform="translate(21.241875 37.2)scale(0.12 -0.12)">
     <defs>
      <path id="DejaVuSans-4b" d="M 628 4666 
L 1259 4666 
L 1259 2694 
L 3353 4666 
L 4166 4666 
L 1850 2491 
L 4331 0 
L 3500 0 
L 1259 2247 
L 1259 0 
L 628 0 
L 628 4666 
z
" transform="scale(0.015625)"/>
      <path id="DejaVuSans-2d" d="M 313 2009 
L 1997 2009 
L 1997 1497 
L 313 1497 
L 313 2009 
z
" transform="scale(0.015625)"/>
      <path id="DejaVuSans-6d" d="M 3328 2828 
Q 3544 3216 3844 3400 
Q 4144 3584 4550 3584 
Q 5097 3584 5394 3201 
Q 5691 2819 5691 2113 
L 5691 0 
L 5113 0 
L 5113 2094 
Q 5113 2597 4934 2840 
Q 4756 3084 4391 3084 
Q 3944 3084 3684 2787 
Q 3425 2491 3425 1978 
L 3425 0 
L 2847 0 
L 2847 2094 
Q 2847 2600 2669 2842 
Q 2491 3084 2119 3084 
Q 1678 3084 1418 2786 
Q 1159 2488 1159 1978 
L 1159 0 
L 581 0 
L 581 3500 
L 1159 3500 
L 1159 2956 
Q 1356 3278 1631 3431 
Q 1906 3584 2284 3584 
Q 2666 3584 2933 3390 
Q 3200 3197 3328 2828 
z
" transform="scale(0.015625)"/>
      <path id="DejaVuSans-65" d="M 3597 1894 
L 3597 1613 
L 953 1613 
Q 991 1019 1311 708 
Q 1631 397 2203 397 
Q 2534 397 2845 478 
Q 3156 559 3463 722 
L 3463 178 
Q 3153 47 2828 -22 
Q 2503 -91 2169 -91 
Q 1331 -91 842 396 
Q 353 884 353 1716 
Q 353 2575 817 3079 
Q 1281 3584 2069 3584 
Q 2775 3584 3186 3129 
Q 3597 2675 3597 1894 
z
M 3022 2063 
Q 3016 2534 2758 2815 
Q 2500 3097 2075 3097 
Q 1594 3097 1305 2825 
Q 1016 2553 972 2059 
L 3022 2063 
z
" transform="scale(0.015625)"/>
      <path id="DejaVuSans-61" d="M 2194 1759 
Q 1497 1759 1228 1600 
Q 959 1441 959 1056 
Q 959 750 1161 570 
Q 1363 391 1709 391 
Q 2188 391 2477 730 
Q 2766 1069 2766 1631 
L 2766 1759 
L 2194 1759 
z
M 3341 1997 
L 3341 0 
L 2766 0 
L 2766 531 
Q 2569 213 2275 61 
Q 1981 -91 1556 -91 
Q 1019 -91 701 211 
Q 384 513 384 1019 
Q 384 1609 779 1909 
Q 1175 2209 1959 2209 
L 2766 2209 
L 2766 2266 
Q 2766 2663 2505 2880 
Q 2244 3097 1772 3097 
Q 1472 3097 1187 3025 
Q 903 2953 641 2809 
L 641 3341 
Q 956 3463 1253 3523 
Q 1550 3584 1831 3584 
Q 2591 3584 2966 3190 
Q 3341 2797 3341 1997 
z
" transform="scale(0.015625)"/>
      <path id="DejaVuSans-6e" d="M 3513 2113 
L 3513 0 
L 2938 0 
L 2938 2094 
Q 2938 2591 2744 2837 
Q 2550 3084 2163 3084 
Q 1697 3084 1428 2787 
Q 1159 2491 1159 1978 
L 1159 0 
L 581 0 
L 581 3500 
L 1159 3500 
L 1159 2956 
Q 1366 3272 1645 3428 
Q 1925 3584 2291 3584 
Q 2894 3584 3203 3211 
Q 3513 2838 3513 2113 
z
" transform="scale(0.015625)"/>
      <path id="DejaVuSans-73" d="M 2834 3397 
L 2834 2853 
Q 2591 2978 2328 3040 
Q 2066 3103 1784 3103 
Q 1356 3103 1142 2972 
Q 928 2841 928 2578 
Q 928 2378 1081 2264 
Q 1234 2150 1697 2047 
L 1894 2003 
Q 2506 1872 2764 1633 
Q 3022 1394 3022 966 
Q 3022 478 2636 193 
Q 2250 -91 1575 -91 
Q 1294 -91 989 -36 
Q 684 19 347 128 
L 347 722 
Q 666 556 975 473 
Q 1284 391 1588 391 
Q 1994 391 2212 530 
Q 2431 669 2431 922 
Q 2431 1156 2273 1281 
Q 2116 1406 1581 1522 
L 1381 1569 
Q 847 1681 609 1914 
Q 372 2147 372 2553 
Q 372 3047 722 3315 
Q 1072 3584 1716 3584 
Q 2034 3584 2315 3537 
Q 2597 3491 2834 3397 
z
" transform="scale(0.015625)"/>
      <path id="DejaVuSans-20" transform="scale(0.015625)"/>
      <path id="DejaVuSans-63" d="M 3122 3366 
L 3122 2828 
Q 2878 2963 2633 3030 
Q 2388 3097 2138 3097 
Q 1578 3097 1268 2742 
Q 959 2388 959 1747 
Q 959 1106 1268 751 
Q 1578 397 2138 397 
Q 2388 397 2633 464 
Q 2878 531 3122 666 
L 3122 134 
Q 2881 22 2623 -34 
Q 2366 -91 2075 -91 
Q 1284 -91 818 406 
Q 353 903 353 1747 
Q 353 2603 823 3093 
Q 1294 3584 2113 3584 
Q 2378 3584 2631 3529 
Q 2884 3475 3122 3366 
z
" transform="scale(0.015625)"/>
      <path id="DejaVuSans-6c" d="M 603 4863 
L 1178 4863 
L 1178 0 
L 603 0 
L 603 4863 
z
" transform="scale(0.015625)"/>
      <path id="DejaVuSans-75" d="M 544 1381 
L 544 3500 
L 1119 3500 
L 1119 1403 
Q 1119 906 1312 657 
Q 1506 409 1894 409 
Q 2359 409 2629 706 
Q 2900 1003 2900 1516 
L 2900 3500 
L 3475 3500 
L 3475 0 
L 2900 0 
L 2900 538 
Q 2691 219 2414 64 
Q 2138 -91 1772 -91 
Q 1169 -91 856 284 
Q 544 659 544 1381 
z
M 1991 3584 
L 1991 3584 
z
" transform="scale(0.015625)"/>
      <path id="DejaVuSans-74" d="M 1172 4494 
L 1172 3500 
L 2356 3500 
L 2356 3053 
L 1172 3053 
L 1172 1153 
Q 1172 725 1289 603 
Q 1406 481 1766 481 
L 2356 481 
L 2356 0 
L 1766 0 
Q 1100 0 847 248 
Q 594 497 594 1153 
L 594 3053 
L 172 3053 
L 172 3500 
L 594 3500 
L 594 4494 
L 1172 4494 
z
" transform="scale(0.015625)"/>
      <path id="DejaVuSans-72" d="M 2631 2963 
Q 2534 3019 2420 3045 
Q 2306 3072 2169 3072 
Q 1681 3072 1420 2755 
Q 1159 2438 1159 1844 
L 1159 0 
L 581 0 
L 581 3500 
L 1159 3500 
L 1159 2956 
Q 1341 3275 1631 3429 
Q 1922 3584 2338 3584 
Q 2397 3584 2469 3576 
Q 2541 3569 2628 3553 
L 2631 2963 
z
" transform="scale(0.015625)"/>
      <path id="DejaVuSans-69" d="M 603 3500 
L 1178 3500 
L 1178 0 
L 603 0 
L 603 3500 
z
M 603 4863 
L 1178 4863 
L 1178 4134 
L 603 4134 
L 603 4863 
z
" transform="scale(0.015625)"/>
      <path id="DejaVuSans-67" d="M 2906 1791 
Q 2906 2416 2648 2759 
Q 2391 3103 1925 3103 
Q 1463 3103 1205 2759 
Q 947 2416 947 1791 
Q 947 1169 1205 825 
Q 1463 481 1925 481 
Q 2391 481 2648 825 
Q 2906 1169 2906 1791 
z
M 3481 434 
Q 3481 -459 3084 -895 
Q 2688 -1331 1869 -1331 
Q 1566 -1331 1297 -1286 
Q 1028 -1241 775 -1147 
L 775 -588 
Q 1028 -725 1275 -790 
Q 1522 -856 1778 -856 
Q 2344 -856 2625 -561 
Q 2906 -266 2906 331 
L 2906 616 
Q 2728 306 2450 153 
Q 2172 0 1784 0 
Q 1141 0 747 490 
Q 353 981 353 1791 
Q 353 2603 747 3093 
Q 1141 3584 1784 3584 
Q 2172 3584 2450 3431 
Q 2728 3278 2906 2969 
L 2906 3500 
L 3481 3500 
L 3481 434 
z
" transform="scale(0.015625)"/>
      <path id="DejaVuSans-3d" d="M 678 2906 
L 4684 2906 
L 4684 2381 
L 678 2381 
L 678 2906 
z
M 678 1631 
L 4684 1631 
L 4684 1100 
L 678 1100 
L 678 1631 
z
" transform="scale(0.015625)"/>
      <path id="DejaVuSans-6f" d="M 1959 3097 
Q 1497 3097 1228 2736 
Q 959 2375 959 1747 
Q 959 1119 1226 758 
Q 1494 397 1959 397 
Q 2419 397 2687 759 
Q 2956 1122 2956 1747 
Q 2956 2369 2687 2733 
Q 2419 3097 1959 3097 
z
M 1959 3584 
Q 2709 3584 3137 3096 
Q 3566 2609 3566 1747 
Q 3566 888 3137 398 
Q 2709 -91 1959 -91 
Q 1206 -91 779 398 
Q 353 888 353 1747 
Q 353 2609 779 3096 
Q 1206 3584 1959 3584 
z
" transform="scale(0.015625)"/>
      <path id="DejaVuSans-66" d="M 2375 4863 
L 2375 4384 
L 1825 4384 
Q 1516 4384 1395 4259 
Q 1275 4134 1275 3809 
L 1275 3500 
L 2222 3500 
L 2222 3053 
L 1275 3053 
L 1275 0 
L 697 0 
L 697 3053 
L 147 3053 
L 147 3500 
L 697 3500 
L 697 3744 
Q 697 4328 969 4595 
Q 1241 4863 1831 4863 
L 2375 4863 
z
" transform="scale(0.015625)"/>
      <path id="DejaVuSans-79" d="M 2059 -325 
Q 1816 -950 1584 -1140 
Q 1353 -1331 966 -1331 
L 506 -1331 
L 506 -850 
L 844 -850 
Q 1081 -850 1212 -737 
Q 1344 -625 1503 -206 
L 1606 56 
L 191 3500 
L 800 3500 
L 1894 763 
L 2988 3500 
L 3597 3500 
L 2059 -325 
z
" transform="scale(0.015625)"/>
      <path id="DejaVuSans-70" d="M 1159 525 
L 1159 -1331 
L 581 -1331 
L 581 3500 
L 1159 3500 
L 1159 2969 
Q 1341 3281 1617 3432 
Q 1894 3584 2278 3584 
Q 2916 3584 3314 3078 
Q 3713 2572 3713 1747 
Q 3713 922 3314 415 
Q 2916 -91 2278 -91 
Q 1894 -91 1617 61 
Q 1341 213 1159 525 
z
M 3116 1747 
Q 3116 2381 2855 2742 
Q 2594 3103 2138 3103 
Q 1681 3103 1420 2742 
Q 1159 2381 1159 1747 
Q 1159 1113 1420 752 
Q 1681 391 2138 391 
Q 2594 391 2855 752 
Q 3116 1113 3116 1747 
z
" transform="scale(0.015625)"/>
      <path id="DejaVuSans-77" d="M 269 3500 
L 844 3500 
L 1563 769 
L 2278 3500 
L 2956 3500 
L 3675 769 
L 4391 3500 
L 4966 3500 
L 4050 0 
L 3372 0 
L 2619 2869 
L 1863 0 
L 1184 0 
L 269 3500 
z
" transform="scale(0.015625)"/>
      <path id="DejaVuSans-2f" d="M 1625 4666 
L 2156 4666 
L 531 -594 
L 0 -594 
L 1625 4666 
z
" transform="scale(0.015625)"/>
     </defs>
     <use xlink:href="#DejaVuSans-4b"/>
     <use xlink:href="#DejaVuSans-2d" x="55.076172"/>
     <use xlink:href="#DejaVuSans-6d" x="91.160156"/>
     <use xlink:href="#DejaVuSans-65" x="188.572266"/>
     <use xlink:href="#DejaVuSans-61" x="250.095703"/>
     <use xlink:href="#DejaVuSans-6e" x="311.375"/>
     <use xlink:href="#DejaVuSans-73" x="374.753906"/>
     <use xlink:href="#DejaVuSans-20" x="426.853516"/>
     <use xlink:href="#DejaVuSans-63" x="458.640625"/>
     <use xlink:href="#DejaVuSans-6c" x="513.621094"/>
     <use xlink:href="#DejaVuSans-75" x="541.404297"/>
     <use xlink:href="#DejaVuSans-73" x="604.783203"/>
     <use xlink:href="#DejaVuSans-74" x="656.882812"/>
     <use xlink:href="#DejaVuSans-65" x="696.091797"/>
     <use xlink:href="#DejaVuSans-72" x="757.615234"/>
     <use xlink:href="#DejaVuSans-69" x="798.728516"/>
     <use xlink:href="#DejaVuSans-6e" x="826.511719"/>
     <use xlink:href="#DejaVuSans-67" x="889.890625"/>
     <use xlink:href="#DejaVuSans-20" x="953.367188"/>
     <use xlink:href="#DejaVuSans-28" x="985.154297"/>
     <use xlink:href="#DejaVuSans-6e" x="1024.167969"/>
     <use xlink:href="#DejaVuSans-3d" x="1087.546875"/>
     <use xlink:href="#DejaVuSans-34" x="1171.335938"/>
     <use xlink:href="#DejaVuSans-29" x="1234.958984"/>
     <use xlink:href="#DejaVuSans-20" x="1273.972656"/>
     <use xlink:href="#DejaVuSans-6f" x="1305.759766"/>
     <use xlink:href="#DejaVuSans-66" x="1366.941406"/>
     <use xlink:href="#DejaVuSans-20" x="1402.146484"/>
     <use xlink:href="#DejaVuSans-35" x="1433.933594"/>
     <use xlink:href="#DejaVuSans-34" x="1497.556641"/>
     <use xlink:href="#DejaVuSans-20" x="1561.179688"/>
     <use xlink:href="#DejaVuSans-79" x="1592.966797"/>
     <use xlink:href="#DejaVuSans-6f" x="1652.146484"/>
     <use xlink:href="#DejaVuSans-67" x="1713.328125"/>
     <use xlink:href="#DejaVuSans-75" x="1776.804688"/>
     <use xlink:href="#DejaVuSans-72" x="1840.183594"/>
     <use xlink:href="#DejaVuSans-74" x="1881.296875"/>
     <use xlink:href="#DejaVuSans-20" x="1920.505859"/>
     <use xlink:href="#DejaVuSans-73" x="1952.292969"/>
     <use xlink:href="#DejaVuSans-61" x="2004.392578"/>
     <use xlink:href="#DejaVuSans-6d" x="2065.671875"/>
     <use xlink:href="#DejaVuSans-70" x="2163.083984"/>
     <use xlink:href="#DejaVuSans-6c" x="2226.560547"/>
     <use xlink:href="#DejaVuSans-65" x="2254.34375"/>
     <use xlink:href="#DejaVuSans-73" x="2315.867188"/>
     <use xlink:href="#DejaVuSans-28" x="2367.966797"/>
     <use xlink:href="#DejaVuSans-77" x="2406.980469"/>
     <use xlink:href="#DejaVuSans-2f" x="2488.767578"/>
     <use xlink:href="#DejaVuSans-6f" x="2522.458984"/>
     <use xlink:href="#DejaVuSans-20" x="2583.640625"/>
     <use xlink:href="#DejaVuSans-6f" x="2615.427734"/>
     <use xlink:href="#DejaVuSans-75" x="2676.609375"/>
     <use xlink:href="#DejaVuSans-74" x="2739.988281"/>
     <use xlink:href="#DejaVuSans-6c" x="2779.197266"/>
     <use xlink:href="#DejaVuSans-69" x="2806.980469"/>
     <use xlink:href="#DejaVuSans-65" x="2834.763672"/>
     <use xlink:href="#DejaVuSans-72" x="2896.287109"/>
     <use xlink:href="#DejaVuSans-73" x="2937.400391"/>
     <use xlink:href="#DejaVuSans-29" x="2989.5"/>
    </g>
   </g>
  </g>
 </g>
 <defs>
  <clipPath id="p866829473e">
   <rect x="49.5" y="43.2" width="306.9" height="271.8"/>
  </clipPath>
 </defs>
</svg>
